<?xml version="1.0" encoding="UTF-8" standalone="no"?>
<!-- Created with Inkscape (http://www.inkscape.org/) -->

<svg
   width="120"
   height="60"
   viewBox="0 0 31.749999 15.875"
   version="1.1"
   id="svg5"
   xml:space="preserve"
   inkscape:version="1.2.1 (9c6d41e410, 2022-07-14)"
   sodipodi:docname="loginButton.svg"
   xmlns:inkscape="http://www.inkscape.org/namespaces/inkscape"
   xmlns:sodipodi="http://sodipodi.sourceforge.net/DTD/sodipodi-0.dtd"
   xmlns="http://www.w3.org/2000/svg"
   xmlns:svg="http://www.w3.org/2000/svg"><sodipodi:namedview
     id="namedview7"
     pagecolor="#ffffff"
     bordercolor="#999999"
     borderopacity="1"
     inkscape:showpageshadow="0"
     inkscape:pageopacity="0"
     inkscape:pagecheckerboard="0"
     inkscape:deskcolor="#d1d1d1"
     inkscape:document-units="mm"
     showgrid="false"
     inkscape:zoom="3.3638608"
     inkscape:cx="80.413553"
     inkscape:cy="26.160416"
     inkscape:window-width="1366"
     inkscape:window-height="705"
     inkscape:window-x="1672"
     inkscape:window-y="279"
     inkscape:window-maximized="1"
     inkscape:current-layer="layer1" /><defs
     id="defs2" /><g
     inkscape:label="Layer 1"
     inkscape:groupmode="layer"
     id="layer1"><g
       id="g302"
       transform="matrix(0.12556607,0,0,0.1247469,-5.192426,-9.667307)"><path
         style="fill:#3e819e;stroke-width:0.264583"
         d="m 99.646429,204.57923 c -1.406901,-0.12673 -3.728619,-0.42909 -5.159375,-0.67192 -2.919132,-0.49542 -9.698482,-2.13574 -10.367452,-2.50848 -0.239802,-0.13362 -1.448035,-0.62826 -2.684962,-1.09922 -3.124584,-1.18967 -8.100346,-3.75992 -11.244792,-5.80855 -14.203195,-9.25348 -24.316872,-24.2461 -27.62588,-40.95288 -1.701933,-8.59285 -1.607185,-18.1807 0.259056,-26.21507 2.820013,-12.14047 8.241522,-22.13559 16.769672,-30.916654 9.948812,-10.243853 22.808237,-16.581364 37.716944,-18.588041 3.59767,-0.484238 11.60805,-0.412683 15.47812,0.138263 16.27417,2.316797 30.61662,10.346441 40.68188,22.775802 9.39229,11.59833 14.29954,25.38964 14.30995,40.21667 0.007,10.62532 -2.20921,19.87445 -7.02976,29.33186 -8.44415,16.56654 -24.13272,28.80066 -42.10063,32.83053 -6.20173,1.39094 -13.55227,1.95866 -19.002771,1.46769 z m 12.876751,-6.61804 c 12.49343,-2.22685 21.38618,-6.39272 30.14227,-14.12035 2.95687,-2.60956 8.11672,-8.62967 9.19819,-10.73173 0.19087,-0.371 0.48947,-0.82548 0.66356,-1.00996 0.17408,-0.18448 0.90046,-1.3751 1.61417,-2.64583 11.53272,-20.53353 9.4898,-46.00454 -5.16362,-64.37966 C 141.67536,95.916604 131.54521,89.141861 120.33608,85.918962 102.03924,80.658177 82.458271,84.873024 67.808598,97.225616 59.137996,104.53666 52.591467,114.87106 49.58076,126.00019 c -1.691172,6.25146 -2.407383,14.549 -1.769928,20.50521 0.860602,8.04122 3.446468,16.3521 7.038623,22.62188 0.541928,0.94588 1.199513,2.09367 1.461299,2.55064 0.416415,0.72689 1.1474,1.76282 3.513508,4.97923 1.087096,1.47776 2.394336,2.9246 4.790813,5.30242 4.672409,4.63603 9.186254,7.84285 15.099773,10.72751 4.656572,2.27151 7.858646,3.35576 14.022917,4.74831 1.102362,0.24904 4.52212,0.74012 6.349995,0.91188 1.91031,0.1795 10.81302,-0.0969 12.43542,-0.38608 z m 3.88804,-46.42871 c 0.005,-0.43656 0.0647,-0.58312 0.13177,-0.32569 0.0671,0.25743 0.0627,0.61462 -0.01,0.79375 -0.0725,0.17913 -0.12737,-0.0315 -0.12197,-0.46806 z m 12.69019,-36.3802 c 0,-0.36381 0.0601,-0.51263 0.13346,-0.33073 0.0734,0.1819 0.0734,0.47955 0,0.66145 -0.0734,0.18191 -0.13346,0.0331 -0.13346,-0.33072 z M 100.68308,86.402046 c 0.1819,-0.0734 0.47955,-0.0734 0.66146,0 0.1819,0.0734 0.0331,0.133452 -0.33073,0.133452 -0.36381,0 -0.51263,-0.06005 -0.33073,-0.133452 z m 3.70416,0 c 0.1819,-0.0734 0.47956,-0.0734 0.66146,0 0.1819,0.0734 0.0331,0.133452 -0.33073,0.133452 -0.3638,0 -0.51263,-0.06005 -0.33073,-0.133452 z"
         id="path306" /><path
         style="fill:#524e4d;stroke-width:0.264583"
         d="m 100.08776,198.34727 c -1.827875,-0.17176 -5.247633,-0.66284 -6.349995,-0.91188 -6.164271,-1.39255 -9.366345,-2.4768 -14.022917,-4.74831 -4.028818,-1.96529 -7.283984,-4.00666 -10.583333,-6.63701 -2.368515,-1.88826 -7.269107,-6.70319 -8.471929,-8.32383 -0.432012,-0.58209 -0.847108,-1.11787 -0.922438,-1.19063 -0.406294,-0.39245 -3.437924,-4.75431 -3.437924,-4.94644 0,-0.12482 1.69664,-0.86595 3.770312,-1.64696 13.847141,-5.21523 22.058249,-8.82184 25.856745,-11.3572 2.316331,-1.54606 3.446605,-3.81047 3.445179,-6.90211 -7.94e-4,-1.70121 -0.652447,-2.94774 -3.482038,-6.66062 -2.305289,-3.02491 -3.982289,-6.21652 -5.824284,-11.08459 -1.725417,-4.55997 -1.800029,-4.91367 -2.734881,-12.96458 -0.568495,-4.89587 -0.62705,-6.13097 -0.420198,-8.86354 0.301241,-3.97956 1.67264,-8.92995 3.225075,-11.64167 2.370613,-4.140885 7.048836,-9.029827 10.67925,-11.160274 3.817768,-2.240392 9.301116,-3.249634 14.875046,-2.737839 1.57575,0.144685 3.57938,0.453646 4.4525,0.686579 4.4849,1.196488 8.93753,4.366129 12.66527,9.015885 2.78931,3.47921 3.90208,5.596059 5.06366,9.632699 1.58414,5.50509 1.55504,9.95415 -0.14357,21.94733 -0.31966,2.25698 -2.83558,8.9386 -4.67561,12.41714 -0.80293,1.51793 -2.3725,3.95871 -3.48793,5.42396 -1.11544,1.46526 -2.30233,3.30393 -2.63754,4.08594 -0.56252,1.31229 -0.58615,1.55581 -0.30667,3.16069 0.16654,0.95637 0.59791,2.36264 0.95858,3.12504 0.54806,1.15851 0.96902,1.58839 2.56292,2.61728 3.79781,2.45155 10.55299,5.46109 22.59618,10.06698 9.42885,3.60603 9.34117,3.56975 9.34117,3.86475 0,0.84942 -4.14973,5.98399 -7.65991,9.4778 -4.55372,4.5325 -9.52364,8.0191 -15.49113,10.86768 -5.12665,2.4472 -9.42417,3.75752 -16.40417,5.00165 -1.6224,0.28918 -10.52511,0.56558 -12.43542,0.38608 z"
         id="path304" /></g><text
       xml:space="preserve"
       style="font-size:7.05556px;font-family:Impact;-inkscape-font-specification:Impact;fill:#ffa500;fill-opacity:1;stroke:none;stroke-width:1.14299"
       x="15.978943"
       y="10.950874"
       id="text362"><tspan
         sodipodi:role="line"
         id="tspan360"
         style="font-size:7.05556px;fill:#ffa500;fill-opacity:1;stroke:none;stroke-width:1.14299"
         x="15.978943"
         y="10.950874">Login</tspan></text></g></svg>
